%TF.GenerationSoftware,KiCad,Pcbnew,9.0.0*%
%TF.CreationDate,2025-12-23T19:15:52-06:00*%
%TF.ProjectId,Project 1 LED Torch,50726f6a-6563-4742-9031-204c45442054,1*%
%TF.SameCoordinates,Original*%
%TF.FileFunction,Drillmap*%
%TF.FilePolarity,Positive*%
%FSLAX45Y45*%
G04 Gerber Fmt 4.5, Leading zero omitted, Abs format (unit mm)*
G04 Created by KiCad (PCBNEW 9.0.0) date 2025-12-23 19:15:52*
%MOMM*%
%LPD*%
G01*
G04 APERTURE LIST*
%ADD10C,0.050000*%
%ADD11C,0.200000*%
G04 APERTURE END LIST*
D10*
X10917448Y-13802360D02*
G75*
G02*
X10611592Y-13802360I-152928J0D01*
G01*
X10611592Y-13802360D02*
G75*
G02*
X10917448Y-13802360I152928J0D01*
G01*
X15523910Y-14320519D02*
G75*
G02*
X13078460Y-14396720I-1238950J482600D01*
G01*
X16047720Y-14290040D02*
G75*
G02*
X16017240Y-14320520I-30480J0D01*
G01*
X16047720Y-13457359D02*
X16047720Y-14290040D01*
X15523910Y-14320519D02*
X16017240Y-14320520D01*
X15539052Y-13410918D02*
X16002000Y-13410918D01*
X16001718Y-13410918D02*
G75*
G02*
X16047720Y-13456920I0J-46002D01*
G01*
X13078460Y-13291820D02*
G75*
G02*
X15539052Y-13410918I1206500J-551180D01*
G01*
X10144760Y-14396720D02*
X13078460Y-14396720D01*
X10144760Y-13279120D02*
X13078460Y-13291820D01*
X10144760Y-14396720D02*
G75*
G02*
X10144760Y-13279120I0J558800D01*
G01*
D11*
X9844237Y-15481528D02*
X9844237Y-15281528D01*
X9844237Y-15281528D02*
X9891856Y-15281528D01*
X9891856Y-15281528D02*
X9920427Y-15291051D01*
X9920427Y-15291051D02*
X9939475Y-15310099D01*
X9939475Y-15310099D02*
X9948999Y-15329147D01*
X9948999Y-15329147D02*
X9958523Y-15367242D01*
X9958523Y-15367242D02*
X9958523Y-15395813D01*
X9958523Y-15395813D02*
X9948999Y-15433909D01*
X9948999Y-15433909D02*
X9939475Y-15452956D01*
X9939475Y-15452956D02*
X9920427Y-15472004D01*
X9920427Y-15472004D02*
X9891856Y-15481528D01*
X9891856Y-15481528D02*
X9844237Y-15481528D01*
X10044237Y-15481528D02*
X10044237Y-15348194D01*
X10044237Y-15386290D02*
X10053761Y-15367242D01*
X10053761Y-15367242D02*
X10063284Y-15357718D01*
X10063284Y-15357718D02*
X10082332Y-15348194D01*
X10082332Y-15348194D02*
X10101380Y-15348194D01*
X10168046Y-15481528D02*
X10168046Y-15348194D01*
X10168046Y-15281528D02*
X10158523Y-15291051D01*
X10158523Y-15291051D02*
X10168046Y-15300575D01*
X10168046Y-15300575D02*
X10177570Y-15291051D01*
X10177570Y-15291051D02*
X10168046Y-15281528D01*
X10168046Y-15281528D02*
X10168046Y-15300575D01*
X10291856Y-15481528D02*
X10272808Y-15472004D01*
X10272808Y-15472004D02*
X10263284Y-15452956D01*
X10263284Y-15452956D02*
X10263284Y-15281528D01*
X10396618Y-15481528D02*
X10377570Y-15472004D01*
X10377570Y-15472004D02*
X10368046Y-15452956D01*
X10368046Y-15452956D02*
X10368046Y-15281528D01*
X10625189Y-15481528D02*
X10625189Y-15281528D01*
X10625189Y-15281528D02*
X10691856Y-15424385D01*
X10691856Y-15424385D02*
X10758523Y-15281528D01*
X10758523Y-15281528D02*
X10758523Y-15481528D01*
X10939475Y-15481528D02*
X10939475Y-15376766D01*
X10939475Y-15376766D02*
X10929951Y-15357718D01*
X10929951Y-15357718D02*
X10910904Y-15348194D01*
X10910904Y-15348194D02*
X10872808Y-15348194D01*
X10872808Y-15348194D02*
X10853761Y-15357718D01*
X10939475Y-15472004D02*
X10920427Y-15481528D01*
X10920427Y-15481528D02*
X10872808Y-15481528D01*
X10872808Y-15481528D02*
X10853761Y-15472004D01*
X10853761Y-15472004D02*
X10844237Y-15452956D01*
X10844237Y-15452956D02*
X10844237Y-15433909D01*
X10844237Y-15433909D02*
X10853761Y-15414861D01*
X10853761Y-15414861D02*
X10872808Y-15405337D01*
X10872808Y-15405337D02*
X10920427Y-15405337D01*
X10920427Y-15405337D02*
X10939475Y-15395813D01*
X11034713Y-15348194D02*
X11034713Y-15548194D01*
X11034713Y-15357718D02*
X11053761Y-15348194D01*
X11053761Y-15348194D02*
X11091856Y-15348194D01*
X11091856Y-15348194D02*
X11110904Y-15357718D01*
X11110904Y-15357718D02*
X11120427Y-15367242D01*
X11120427Y-15367242D02*
X11129951Y-15386290D01*
X11129951Y-15386290D02*
X11129951Y-15443432D01*
X11129951Y-15443432D02*
X11120427Y-15462480D01*
X11120427Y-15462480D02*
X11110904Y-15472004D01*
X11110904Y-15472004D02*
X11091856Y-15481528D01*
X11091856Y-15481528D02*
X11053761Y-15481528D01*
X11053761Y-15481528D02*
X11034713Y-15472004D01*
X11215665Y-15462480D02*
X11225189Y-15472004D01*
X11225189Y-15472004D02*
X11215665Y-15481528D01*
X11215665Y-15481528D02*
X11206142Y-15472004D01*
X11206142Y-15472004D02*
X11215665Y-15462480D01*
X11215665Y-15462480D02*
X11215665Y-15481528D01*
X11215665Y-15357718D02*
X11225189Y-15367242D01*
X11225189Y-15367242D02*
X11215665Y-15376766D01*
X11215665Y-15376766D02*
X11206142Y-15367242D01*
X11206142Y-15367242D02*
X11215665Y-15357718D01*
X11215665Y-15357718D02*
X11215665Y-15376766D01*
M02*
